<?xml version="1.0" encoding="utf-8"?>
<!-- Generator: Adobe Illustrator 27.5.0, SVG Export Plug-In . SVG Version: 6.00 Build 0)  -->
<svg version="1.1" id="Layer_1" xmlns="http://www.w3.org/2000/svg" xmlns:xlink="http://www.w3.org/1999/xlink" x="0px" y="0px"
	 viewBox="0 0 55 46" style="enable-background:new 0 0 55 46;" xml:space="preserve">
<style type="text/css">
	.st0{enable-background:new    ;}
</style>
<g class="st0">
	<path d="M17.2,35.2V2.8h11.1c2.6,0,4.5,0.1,5.8,0.4c1.9,0.4,3.4,1.2,4.8,2.3c1.7,1.4,3,3.3,3.9,5.6s1.2,4.8,1.2,7.7
		c0,2.4-0.3,4.7-0.9,6.6s-1.3,3.4-2.2,4.7c-0.9,1.2-1.9,2.2-3,2.9s-2.3,1.2-3.9,1.7c-1.6,0.3-3.2,0.6-5.2,0.6H17.2z M21.5,31.4h6.9
		c2.1,0,3.8-0.2,5-0.6c1.2-0.4,2.2-1,2.9-1.7c1-1,1.8-2.3,2.3-4.1c0.6-1.7,0.9-3.8,0.9-6.2c0-3.4-0.6-6-1.7-7.8s-2.4-3-4.1-3.7
		c-1.1-0.4-3-0.7-5.6-0.7h-6.8v24.7H21.5z"/>
</g>
<g>
	<path d="M19.1,37.5c0.9,0,1.5,0.2,2,0.7c0.5,0.4,0.7,1.1,0.7,2c0,0.5-0.1,0.9-0.2,1.2c-0.1,0.4-0.3,0.7-0.5,0.9s-0.5,0.4-0.8,0.6
		c-0.3,0.1-0.7,0.2-1.2,0.2h-1.9v-5.6H19.1z M19.2,42.5c0.1,0,0.2,0,0.3,0c0.1,0,0.3,0,0.4-0.1c0.1,0,0.3-0.1,0.4-0.2
		c0.1-0.1,0.3-0.2,0.4-0.4c0.1-0.2,0.2-0.4,0.3-0.6c0.1-0.2,0.1-0.5,0.1-0.9c0-0.3,0-0.6-0.1-0.9c-0.1-0.3-0.2-0.5-0.3-0.7
		c-0.1-0.2-0.3-0.3-0.6-0.4c-0.2-0.1-0.5-0.1-0.9-0.1h-1.2v4.3H19.2z"/>
	<path d="M26.5,37.5v0.6h-3.1v1.8h2.9v0.6h-2.9v1.9h3.1v0.6h-3.9v-5.6H26.5z"/>
	<path d="M28.5,37.5l1.8,4.7l1.8-4.7h1v5.6h-0.7v-4.6h0l-1.7,4.6h-0.6l-1.7-4.6h0v4.6h-0.7v-5.6H28.5z"/>
	<path d="M34.1,39.2c0.1-0.4,0.3-0.7,0.5-0.9c0.2-0.3,0.5-0.5,0.8-0.6c0.3-0.2,0.7-0.2,1.2-0.2s0.8,0.1,1.2,0.2
		c0.3,0.2,0.6,0.4,0.8,0.6c0.2,0.3,0.4,0.6,0.5,0.9c0.1,0.3,0.2,0.7,0.2,1.1s-0.1,0.7-0.2,1.1c-0.1,0.4-0.3,0.7-0.5,0.9
		c-0.2,0.3-0.5,0.5-0.8,0.6s-0.7,0.2-1.2,0.2s-0.8-0.1-1.2-0.2s-0.6-0.4-0.8-0.6c-0.2-0.3-0.4-0.6-0.5-0.9c-0.1-0.3-0.2-0.7-0.2-1.1
		S34,39.6,34.1,39.2z M34.8,41.1c0.1,0.3,0.2,0.5,0.3,0.7c0.2,0.2,0.4,0.4,0.6,0.5c0.2,0.1,0.5,0.2,0.9,0.2c0.3,0,0.6-0.1,0.9-0.2
		c0.2-0.1,0.4-0.3,0.6-0.5c0.2-0.2,0.3-0.5,0.3-0.7c0.1-0.3,0.1-0.5,0.1-0.8s0-0.6-0.1-0.8c-0.1-0.3-0.2-0.5-0.3-0.7
		c-0.2-0.2-0.4-0.4-0.6-0.5c-0.2-0.1-0.5-0.2-0.9-0.2c-0.3,0-0.6,0.1-0.9,0.2c-0.2,0.1-0.4,0.3-0.6,0.5c-0.2,0.2-0.3,0.5-0.3,0.7
		c-0.1,0.3-0.1,0.5-0.1,0.8S34.7,40.9,34.8,41.1z"/>
</g>
</svg>
